<svg width="100" height="113" viewBox="0 0 100 113" fill="none" xmlns="http://www.w3.org/2000/svg">
<path d="M77.953 43.1183C78.4486 43.614 78.9442 44.2512 79.4398 45.03H54.3759V19.9661C55.1548 20.4617 55.792 20.9573 56.2876 21.4529L77.953 43.1183ZM52.6767 51.827H81.5639V107.902C81.5639 109.318 81.0683 110.522 80.077 111.513C79.0858 112.504 77.8822 113 76.4662 113H5.09774C3.6817 113 2.47807 112.504 1.48684 111.513C0.495614 110.522 0 109.318 0 107.902V22.9398C0 21.5237 0.495614 20.3201 1.48684 19.3289C2.47807 18.3377 3.6817 17.842 5.09774 17.842H47.5789V46.7293C47.5789 48.1453 48.0746 49.3489 49.0658 50.3402C50.057 51.3314 51.2606 51.827 52.6767 51.827ZM61.1729 90.9097V87.5112C61.1729 87.0156 61.0136 86.6085 60.695 86.2899C60.3764 85.9713 59.9693 85.812 59.4737 85.812H22.0902C21.5946 85.812 21.1875 85.9713 20.8689 86.2899C20.5503 86.6085 20.391 87.0156 20.391 87.5112V90.9097C20.391 91.4053 20.5503 91.8124 20.8689 92.131C21.1875 92.4496 21.5946 92.6089 22.0902 92.6089H59.4737C59.9693 92.6089 60.3764 92.4496 60.695 92.131C61.0136 91.8124 61.1729 91.4053 61.1729 90.9097ZM61.1729 77.3157V73.9172C61.1729 73.4216 61.0136 73.0145 60.695 72.6959C60.3764 72.3773 59.9693 72.218 59.4737 72.218H22.0902C21.5946 72.218 21.1875 72.3773 20.8689 72.6959C20.5503 73.0145 20.391 73.4216 20.391 73.9172V77.3157C20.391 77.8113 20.5503 78.2184 20.8689 78.537C21.1875 78.8557 21.5946 79.015 22.0902 79.015H59.4737C59.9693 79.015 60.3764 78.8557 60.695 78.537C61.0136 78.2184 61.1729 77.8113 61.1729 77.3157ZM61.1729 63.7217V60.3232C61.1729 59.8276 61.0136 59.4205 60.695 59.1019C60.3764 58.7833 59.9693 58.624 59.4737 58.624H22.0902C21.5946 58.624 21.1875 58.7833 20.8689 59.1019C20.5503 59.4205 20.391 59.8276 20.391 60.3232V63.7217C20.391 64.2173 20.5503 64.6245 20.8689 64.9431C21.1875 65.2617 21.5946 65.421 22.0902 65.421H59.4737C59.9693 65.421 60.3764 65.2617 60.695 64.9431C61.0136 64.6245 61.1729 64.2173 61.1729 63.7217Z" fill="#C9A479"/>
<path d="M98.4521 34.7024C98.141 35.0137 97.7716 35.2606 97.3651 35.429C96.9586 35.5975 96.5229 35.6842 96.0828 35.6842C95.6427 35.6842 95.207 35.5975 94.8005 35.429C94.394 35.2606 94.0246 35.0137 93.7135 34.7024L87.7998 28.7887C85.3669 30.3459 82.4916 31.2775 79.3884 31.2775C70.7514 31.2775 63.7497 24.2758 63.7497 15.6388C63.7497 7.0017 70.7514 0 79.3884 0C88.0255 0 95.0272 7.0017 95.0272 15.6388C95.0272 18.7419 94.0956 21.6172 92.5384 24.0502L98.4521 29.9639C98.7633 30.2749 99.0102 30.6443 99.1787 31.0508C99.3472 31.4573 99.4339 31.8931 99.4339 32.3331C99.4339 32.7732 99.3472 33.2089 99.1787 33.6155C99.0102 34.022 98.7633 34.3913 98.4521 34.7024ZM79.3884 4.46822C73.2201 4.46822 68.2179 9.46815 68.2179 15.6388C68.2179 21.8094 73.2201 26.8093 79.3884 26.8093C85.559 26.8093 90.559 21.8094 90.559 15.6388C90.559 9.46815 85.559 4.46822 79.3884 4.46822Z" fill="#C9A479"/>
</svg>
