<svg width="111" height="111" viewBox="0 0 111 111" fill="none" xmlns="http://www.w3.org/2000/svg">
<path d="M29.3867 87.9599V93.3487H27.3123C26.9455 93.3487 26.5938 93.4944 26.3344 93.7538C26.0751 94.0131 25.9294 94.3649 25.9294 94.7317V107.178C25.9294 107.637 26.1115 108.076 26.4357 108.4C26.7599 108.725 27.1996 108.907 27.658 108.907H38.03C38.4885 108.907 38.9282 108.725 39.2524 108.4C39.5766 108.076 39.7587 107.637 39.7587 107.178V94.7317C39.7587 94.3649 39.613 94.0131 39.3537 93.7538C39.0943 93.4944 38.7426 93.3487 38.3758 93.3487H36.3014V87.9599C44.2054 87.0763 51.4711 83.1998 56.6063 77.1265C61.7414 71.0533 64.3563 63.2443 63.9138 55.3033C63.4713 47.3624 60.005 39.8923 54.2268 34.4271C48.4487 28.962 40.7973 25.9167 32.844 25.9167C24.8908 25.9167 17.2394 28.962 11.4612 34.4271C5.68309 39.8923 2.21682 47.3624 1.77431 55.3033C1.33181 63.2443 3.94665 71.0533 9.08182 77.1265C14.217 83.1998 21.4827 87.0763 29.3867 87.9599ZM32.844 33.7097C37.4597 33.7097 41.9716 35.0784 45.8094 37.6427C49.6471 40.207 52.6383 43.8517 54.4046 48.116C56.171 52.3803 56.6331 57.0726 55.7326 61.5995C54.8322 66.1265 52.6095 70.2847 49.3458 73.5485C46.0821 76.8122 41.9238 79.0349 37.3969 79.9353C32.8699 80.8358 28.1776 80.3736 23.9133 78.6073C19.6491 76.841 16.0043 73.8498 13.44 70.0121C10.8757 66.1743 9.50702 61.6623 9.50702 57.0467C9.50702 50.8573 11.9657 44.9215 16.3423 40.5449C20.7188 36.1684 26.6547 33.7097 32.844 33.7097Z" fill="#C9A479"/>
<path d="M107.177 1.729H32.8447C32.3862 1.729 31.9465 1.91113 31.6223 2.23532C31.2982 2.55951 31.116 2.9992 31.116 3.45767V8.64368H86.4334V12.101H31.116V22.473L31.1715 22.5577C31.7297 22.5308 32.2799 22.473 32.8447 22.473C38.7274 22.4601 44.5157 23.9516 49.6595 26.806C54.8033 29.6604 59.1317 33.7828 62.2334 38.7813C65.3351 43.7799 67.107 49.4886 67.3808 55.365C67.6545 61.2413 66.421 67.09 63.7975 72.3553L63.9607 72.6044H107.177C107.636 72.6044 108.076 72.4223 108.4 72.0981C108.724 71.7739 108.906 71.3342 108.906 70.8757V12.101H100.263V8.64368H108.906V3.45767C108.906 2.9992 108.724 2.55951 108.4 2.23532C108.076 1.91113 107.636 1.729 107.177 1.729ZM84.7047 62.2324H72.6041V32.845H84.7047V62.2324ZM91.6194 8.64368H95.0767V12.101H91.6194V8.64368ZM103.72 22.473V62.2324H91.6194V22.473H103.72ZM27.6587 47.5387C27.6587 46.3925 28.114 45.2933 28.9245 44.4828C29.7349 43.6724 30.8342 43.217 31.9804 43.217C33.1265 43.217 34.2258 43.6724 35.0362 44.4828C35.8467 45.2933 36.302 46.3925 36.302 47.5387V48.9635C36.303 50.102 36.0223 51.2231 35.4851 52.2269C34.9478 53.2307 34.1707 54.086 33.2228 54.7167C32.5742 55.1482 32.0424 55.7335 31.6748 56.4204C31.3072 57.1073 31.1152 57.8744 31.116 58.6535V67.4184H34.5734V58.6535C34.573 58.4437 34.6246 58.2371 34.7236 58.0521C34.8226 57.8671 34.9658 57.7095 35.1406 57.5933C36.5623 56.6473 37.7281 55.3643 38.5339 53.8586C39.3398 52.3529 39.7608 50.6713 39.7594 48.9635V47.5387C39.7594 45.4756 38.9398 43.497 37.4809 42.0381C36.0221 40.5793 34.0435 39.7597 31.9804 39.7597C29.9172 39.7597 27.9386 40.5793 26.4798 42.0381C25.0209 43.497 24.2014 45.4756 24.2014 47.5387V50.1317H27.6587V47.5387Z" fill="#C9A479"/>
<path d="M34.5734 70.8757H31.116V74.3331H34.5734V70.8757Z" fill="#C9A479"/>
</svg>
