<svg width="103" height="100" viewBox="0 0 103 100" fill="none" xmlns="http://www.w3.org/2000/svg">
<g clip-path="url(#clip0_45_111)">
<path d="M41.0786 21.9433C47.1412 21.9433 52.0559 17.0311 52.0559 10.9717C52.0559 4.91218 47.1412 0 41.0786 0C35.0161 0 30.1013 4.91218 30.1013 10.9717C30.1013 17.0311 35.0161 21.9433 41.0786 21.9433Z" fill="#C9A479"/>
<path d="M24.8289 66.4183C25.3358 66.5816 25.872 66.6753 26.4272 66.7001C27.3664 66.8103 28.3075 66.8357 29.2115 66.824C30.0292 66.8137 30.7635 66.7889 31.4158 66.7143H45.774L53.0342 94.536C53.7494 97.2779 56.2225 99.0943 58.9312 99.0943C59.4405 99.0943 59.9582 99.03 60.4744 98.8954C63.7334 98.0459 65.6864 94.7164 64.836 91.459L56.3864 59.0804C55.6858 56.3965 53.2606 54.5235 50.4855 54.5235H34.9826C35.0017 51.3676 35.3603 48.1405 35.8481 45.0421L26.837 35.07C25.9374 34.0743 25.4792 32.7884 25.5475 31.4484C25.6158 30.1084 26.2018 28.8757 27.1975 27.9765C28.1231 27.1412 29.3188 26.6814 30.5649 26.6814C31.9846 26.6814 33.3439 27.285 34.2952 28.3373L46.7664 42.1377H61.255L65.099 41.1966C67.1929 40.6841 68.4741 38.5722 67.9618 36.4798C67.4496 34.3874 65.3371 33.1073 63.2426 33.6184L47.5977 37.4477L36.1092 24.5158C35.9194 24.3022 35.7106 24.1164 35.4886 23.9545C34.8455 23.4035 34.102 22.9968 33.2614 22.7876C29.0964 21.7495 23.0589 24.0106 20.6024 31.1505C17.2824 40.9879 16.5686 47.391 17.8303 58.2237C18.8714 63.5822 21.7104 65.6576 24.8289 66.4183Z" fill="#C9A479"/>
<path d="M58.112 57.4411H84.2946V93.6881H67.1378V97.9144H102.021V93.6881H91.8567V57.4411H102.021V53.2148H58.112V57.4411Z" fill="#C9A479"/>
<path d="M10.3593 71.6501C11.3136 73.742 16.3656 75.4175 22.8788 75.8466V76.7097H24.9522V86.9763L10.6818 91.3649V93.1614C9.76748 93.612 9.13665 94.5506 9.13665 95.6385C9.13665 97.1648 10.3744 98.4019 11.9015 98.4019C13.4285 98.4019 14.6663 97.1648 14.6663 95.6385C14.6663 94.5531 14.0384 93.6163 13.1275 93.1643L24.9527 89.5276V93.1614C24.0384 93.612 23.4076 94.5506 23.4076 95.6385C23.4076 97.1648 24.6454 98.4019 26.1724 98.4019C27.6995 98.4019 28.9372 97.1648 28.9372 95.6385C28.9372 94.5506 28.3069 93.6124 27.3921 93.1614V89.5276L39.2174 93.1643C38.306 93.6163 37.6786 94.5531 37.6786 95.6385C37.6786 97.1648 38.9163 98.4019 40.4434 98.4019C41.9705 98.4019 43.2082 97.1648 43.2082 95.6385C43.2082 94.5506 42.5779 93.6124 41.6631 93.1614V91.3649L27.3926 86.9763V76.7097H29.4661V75.8466C36.7101 75.3692 42.151 73.3505 42.151 70.9313C42.151 68.5873 19.3328 68.224 12.2605 69.842L6.79092 55.2833C9.12299 58.92 11.5263 60.9822 13.1451 60.3751C15.7435 59.3999 4.51009 29.4989 1.91164 30.4737C-0.206247 31.2685 -0.325778 36.3877 1.3818 42.7249C1.18909 42.699 0.988082 42.7137 0.793418 42.7868C0.163078 43.0233 -0.156483 43.7265 0.0806261 44.3565L10.2563 71.4424C10.2832 71.5165 10.3193 71.5852 10.3593 71.6501ZM68.7541 51.0604H85.9279C86.4612 51.0604 86.952 50.7708 87.2096 50.3041L99.3661 28.2794L96.8028 26.8662L85.0634 48.1347H70.5236C70.2914 49.3079 69.6498 50.3343 68.7541 51.0604ZM33.4638 29.0883C32.0197 27.4899 29.551 27.3641 27.9512 28.808C26.352 30.2518 26.2261 32.7192 27.6712 34.3177L41.6387 49.7741C42.3788 50.5928 43.4312 51.0604 44.5352 51.0604H63.323H65.5955C67.751 51.0604 69.4986 49.3137 69.4986 47.1594C69.4986 45.005 67.751 43.2584 65.5955 43.2584H46.2692L33.4638 29.0883Z" fill="#C9A479"/>
</g>
<defs>
<clipPath id="clip0_45_111">
<rect width="102.022" height="99.0936" fill="white"/>
</clipPath>
</defs>
</svg>
