<svg width="100" height="100" viewBox="0 0 100 100" fill="none" xmlns="http://www.w3.org/2000/svg">
<g clip-path="url(#clip0_45_98)">
<path d="M40.908 25.5884C40.5546 25.1741 40.0523 24.9158 39.5098 24.8693C38.9673 24.8228 38.4283 24.9919 38.0096 25.3399L25.5881 35.6912C25.3536 35.8855 25.1649 36.1291 25.0354 36.4046C24.9059 36.6802 24.8387 36.9809 24.8387 37.2853C24.8387 37.5898 24.9059 37.8905 25.0354 38.1661C25.1649 38.4416 25.3536 38.6852 25.5881 38.8794L38.0096 49.2308C38.4324 49.5822 38.9775 49.7512 39.5249 49.7007C40.0723 49.6503 40.5773 49.3844 40.9287 48.9616C41.2801 48.5388 41.4492 47.9938 41.3987 47.4463C41.3482 46.8989 41.0823 46.3939 40.6596 46.0425L30.1426 37.2646L40.6596 28.4867C41.0738 28.1334 41.3321 27.631 41.3786 27.0885C41.4251 26.5461 41.256 26.0071 40.908 25.5884ZM61.3622 25.3399C60.9394 24.9885 60.3943 24.8195 59.8469 24.8699C59.2995 24.9204 58.7945 25.1863 58.4431 25.6091C58.0917 26.0319 57.9226 26.5769 57.9731 27.1243C58.0236 27.6718 58.2895 28.1767 58.7122 28.5281L69.2292 37.2646L58.7122 46.0425C58.2895 46.3939 58.0236 46.8989 57.9731 47.4463C57.9226 47.9938 58.0917 48.5388 58.4431 48.9616C58.7945 49.3844 59.2995 49.6503 59.8469 49.7007C60.3943 49.7512 60.9394 49.5822 61.3622 49.2308L73.7837 38.8794C74.0182 38.6852 74.2069 38.4416 74.3364 38.1661C74.4659 37.8905 74.5331 37.5898 74.5331 37.2853C74.5331 36.9809 74.4659 36.6802 74.3364 36.4046C74.2069 36.1291 74.0182 35.8855 73.7837 35.6912L61.3622 25.3399ZM56.7248 20.7026C56.4562 20.5692 56.1618 20.4958 55.862 20.4874C55.5623 20.479 55.2642 20.5358 54.9886 20.654C54.713 20.7721 54.4663 20.9487 54.2656 21.1716C54.0649 21.3944 53.9151 21.6582 53.8264 21.9447L41.4049 50.9284C41.2952 51.1784 41.2361 51.4476 41.2309 51.7205C41.2257 51.9934 41.2745 52.2647 41.3746 52.5187C41.4746 52.7727 41.6239 53.0044 41.8139 53.2004C42.0038 53.3965 42.2307 53.5531 42.4814 53.6611C42.7545 53.718 43.0364 53.718 43.3095 53.6611C43.7135 53.6625 44.1092 53.5457 44.4476 53.3249C44.7861 53.1042 45.0525 52.7893 45.2141 52.419L57.6357 23.4353C57.8684 22.9507 57.9035 22.3945 57.7334 21.8845C57.5634 21.3745 57.2017 20.9506 56.7248 20.7026Z" fill="#C9A479"/>
<path d="M91.0897 4.14062H8.27921C6.08294 4.14063 3.97663 5.01309 2.42363 6.56609C0.870634 8.11908 -0.00183105 10.2254 -0.00183105 12.4217L-0.00183105 70.389C-0.00183105 72.5853 0.870634 74.6916 2.42363 76.2446C3.97663 77.7976 6.08294 78.67 8.27921 78.67H37.2629C37.4205 82.6034 36.3339 86.4864 34.1575 89.7666C33.762 90.1932 33.281 90.5317 32.746 90.76C32.2109 90.9883 31.6337 91.1013 31.0521 91.0916C30.503 91.0916 29.9764 91.3097 29.5882 91.698C29.1999 92.0862 28.9818 92.6128 28.9818 93.1619C28.9818 93.7109 29.1999 94.2375 29.5882 94.6258C29.9764 95.014 30.503 95.2321 31.0521 95.2321H68.3168C68.8659 95.2321 69.3924 95.014 69.7807 94.6258C70.1689 94.2375 70.3871 93.7109 70.3871 93.1619C70.3871 92.6128 70.1689 92.0862 69.7807 91.698C69.3924 91.3097 68.8659 91.0916 68.3168 91.0916C67.7282 91.1072 67.1431 90.9971 66.6005 90.7686C66.0578 90.5401 65.5702 90.1985 65.17 89.7666C63.0108 86.4804 61.9389 82.5986 62.106 78.67H91.0897C93.2859 78.67 95.3923 77.7976 96.9452 76.2446C98.4982 74.6916 99.3707 72.5853 99.3707 70.389V12.4217C99.3707 10.2254 98.4982 8.11908 96.9452 6.56609C95.3923 5.01309 93.2859 4.14063 91.0897 4.14062ZM49.6844 74.5295C48.8655 74.5295 48.065 74.2867 47.3841 73.8317C46.7032 73.3767 46.1725 72.7301 45.8591 71.9735C45.5457 71.2169 45.4637 70.3844 45.6235 69.5812C45.7832 68.778 46.1776 68.0403 46.7566 67.4612C47.3357 66.8821 48.0735 66.4878 48.8767 66.328C49.6798 66.1683 50.5124 66.2503 51.2689 66.5636C52.0255 66.877 52.6722 67.4077 53.1272 68.0886C53.5821 68.7695 53.825 69.5701 53.825 70.389C53.825 71.4871 53.3887 72.5403 52.6122 73.3168C51.8357 74.0933 50.7826 74.5295 49.6844 74.5295ZM8.27921 62.1079V12.4217H91.0897V62.1079H8.27921Z" fill="#C9A479"/>
</g>
<defs>
<clipPath id="clip0_45_98">
<rect width="99.3725" height="99.3725" fill="white"/>
</clipPath>
</defs>
</svg>
