<svg width="101" height="101" viewBox="0 0 101 101" fill="none" xmlns="http://www.w3.org/2000/svg">
<g clip-path="url(#clip0_45_101)">
<path d="M31.2582 33.3442H18.7538C17.6028 33.3442 16.6697 34.2773 16.6697 35.4283V52.1008C16.6697 53.2518 17.6028 54.1849 18.7538 54.1849H31.2582C32.4091 54.1849 33.3422 53.2518 33.3422 52.1008V35.4283C33.3422 34.2773 32.4091 33.3442 31.2582 33.3442Z" fill="#C9A479"/>
<path d="M56.2669 27.092H43.7625C42.6115 27.092 41.6785 28.0251 41.6785 29.1761V52.1008C41.6785 53.2518 42.6115 54.1849 43.7625 54.1849H56.2669C57.4179 54.1849 58.351 53.2518 58.351 52.1008V29.1761C58.351 28.0251 57.4179 27.092 56.2669 27.092Z" fill="#C9A479"/>
<path d="M81.2756 20.8398H68.7713C67.6203 20.8398 66.6872 21.7729 66.6872 22.9239V52.1008C66.6872 53.2518 67.6203 54.1849 68.7713 54.1849H81.2756C82.4266 54.1849 83.3597 53.2518 83.3597 52.1008V22.9239C83.3597 21.7729 82.4266 20.8398 81.2756 20.8398Z" fill="#C9A479"/>
<path d="M91.6951 4.16724H8.33259C6.12168 4.16724 4.00132 5.04552 2.43797 6.60887C0.874619 8.17222 -0.00366211 10.2926 -0.00366211 12.5035L-0.00366211 70.8572C-0.00366211 73.0682 0.874619 75.1885 2.43797 76.7519C4.00132 78.3152 6.12168 79.1935 8.33259 79.1935H37.5095C37.6682 83.1531 36.5743 87.062 34.3834 90.3641C33.9852 90.7935 33.5011 91.1343 32.9625 91.3641C32.4238 91.5939 31.8428 91.7076 31.2573 91.6979C30.7046 91.6979 30.1745 91.9174 29.7836 92.3083C29.3928 92.6991 29.1732 93.2292 29.1732 93.7819C29.1732 94.3347 29.3928 94.8648 29.7836 95.2556C30.1745 95.6464 30.7046 95.866 31.2573 95.866H68.7704C69.3231 95.866 69.8532 95.6464 70.2441 95.2556C70.6349 94.8648 70.8545 94.3347 70.8545 93.7819C70.8545 93.2292 70.6349 92.6991 70.2441 92.3083C69.8532 91.9174 69.3231 91.6979 68.7704 91.6979C68.1779 91.7136 67.5889 91.6027 67.0426 91.3727C66.4964 91.1427 66.0055 90.7988 65.6026 90.3641C63.429 87.0559 62.35 83.1483 62.5182 79.1935H91.6951C93.906 79.1935 96.0264 78.3152 97.5897 76.7519C99.1531 75.1885 100.031 73.0682 100.031 70.8572V12.5035C100.031 10.2926 99.1531 8.17222 97.5897 6.60887C96.0264 5.04552 93.906 4.16724 91.6951 4.16724ZM45.8457 70.8572C45.8457 70.0329 46.0902 69.227 46.5482 68.5416C47.0062 67.8561 47.6571 67.3219 48.4188 67.0064C49.1804 66.6909 50.0185 66.6084 50.827 66.7692C51.6355 66.93 52.3782 67.327 52.9612 67.9099C53.5441 68.4929 53.9411 69.2355 54.1019 70.0441C54.2627 70.8526 54.1802 71.6907 53.8647 72.4523C53.5492 73.2139 53.015 73.8649 52.3295 74.3229C51.6441 74.7809 50.8382 75.0254 50.0138 75.0254C48.9084 75.0254 47.8482 74.5862 47.0665 73.8046C46.2849 73.0229 45.8457 71.9627 45.8457 70.8572ZM8.33259 62.521V12.5035H91.6951V62.521H8.33259Z" fill="#C9A479"/>
</g>
<defs>
<clipPath id="clip0_45_101">
<rect width="100.035" height="100.035" fill="white"/>
</clipPath>
</defs>
</svg>
